<svg width="24" height="24" viewBox="0 0 24 24" fill="none" xmlns="http://www.w3.org/2000/svg">
<path d="M19.5 2.5C21.1569 2.5 22.5 3.84315 22.5 5.5V18.5C22.5 20.1569 21.1569 21.5 19.5 21.5H4.5C2.84315 21.5 1.5 20.1569 1.5 18.5V5.5C1.5 3.84315 2.84315 2.5 4.5 2.5H19.5ZM19.5 4H4.5C3.70116 4 3.04817 4.62446 3.00255 5.41186L3 5.5V18.5C3 19.2988 3.62446 19.9518 4.41186 19.9975L4.5 20H19.5C20.2988 20 20.9518 19.3755 20.9975 18.5881L21 18.5V5.5C21 4.70116 20.3755 4.04817 19.5881 4.00255L19.5 4ZM21.5 7.7V8.8C21.5 8.91046 21.4105 9 21.3 9H2.7C2.58954 9 2.5 8.91046 2.5 8.8V7.7C2.5 7.58954 2.58954 7.5 2.7 7.5H21.3C21.4105 7.5 21.5 7.58954 21.5 7.7ZM9.5 16.7V17.8C9.5 17.9105 9.41046 18 9.3 18H5.2C5.08954 18 5 17.9105 5 17.8V16.7C5 16.5895 5.08954 16.5 5.2 16.5H9.3C9.41046 16.5 9.5 16.5895 9.5 16.7Z" fill="url(#paint0_linear_42_14433)"/>
<defs>
<linearGradient id="paint0_linear_42_14433" x1="12" y1="2.5" x2="12" y2="21.5" gradientUnits="userSpaceOnUse">
<stop stop-color="#1E3A8A"/>
<stop offset="1" stop-color="#3E5AA9"/>
</linearGradient>
</defs>
</svg>
