<svg width="24" height="24" viewBox="0 0 24 24" fill="none" xmlns="http://www.w3.org/2000/svg">
<path d="M9 2.2V3.5H15V2.2C15 2.08954 15.0895 2 15.2 2H16.3C16.4105 2 16.5 2.08954 16.5 2.2V3.5H18.5C20.1569 3.5 21.5 4.84315 21.5 6.5V19C21.5 20.6569 20.1569 22 18.5 22H5.5C3.84315 22 2.5 20.6569 2.5 19V6.5C2.5 4.84315 3.84315 3.5 5.5 3.5H7.5V2.2C7.5 2.08954 7.58954 2 7.7 2H8.8C8.91046 2 9 2.08954 9 2.2ZM20 10H4V19C4 19.7988 4.62446 20.4518 5.41186 20.4975L5.5 20.5H18.5C19.2988 20.5 19.9518 19.8755 19.9975 19.0881L20 19V10ZM7.5 5H5.5C4.70116 5 4.04817 5.62446 4.00255 6.41186L4 6.5V8.5H20V6.5C20 5.70116 19.3755 5.04817 18.5881 5.00255L18.5 5H16.5V6.3C16.5 6.41046 16.4105 6.5 16.3 6.5H15.2C15.0895 6.5 15 6.41046 15 6.3V5H9V6.3C9 6.41046 8.91046 6.5 8.8 6.5H7.7C7.58954 6.5 7.5 6.41046 7.5 6.3V5Z" fill="black"/>
</svg>
