
<svg width="12" height="12" viewBox="0 0 12 12" fill="none" xmlns="http://www.w3.org/2000/svg">
<g clip-path="url(#clip0_42_14441)">
<path d="M6 0.5C9.03757 0.5 11.5 2.96243 11.5 6C11.5 9.03757 9.03757 11.5 6 11.5C2.96243 11.5 0.5 9.03757 0.5 6C0.5 2.96243 2.96243 0.5 6 0.5ZM6 1.25C3.37665 1.25 1.25 3.37665 1.25 6C1.25 8.62335 3.37665 10.75 6 10.75C8.62335 10.75 10.75 8.62335 10.75 6C10.75 3.37665 8.62335 1.25 6 1.25ZM8.98494 4.4205L5.83579 7.56954C5.68934 7.71599 5.4519 7.71599 5.30546 7.56954L5.28622 7.54907C5.25888 7.53314 5.23313 7.51346 5.20971 7.49004L3.39035 5.6705C3.3513 5.63144 3.3513 5.56813 3.39036 5.52908C3.40911 5.51033 3.43454 5.49979 3.46106 5.49979H4.23874C4.26526 5.49979 4.29069 5.51033 4.30945 5.52908L5.5625 6.78204L8.06562 4.27908C8.08437 4.26033 8.10981 4.24979 8.13633 4.24979H8.91423C8.96946 4.24979 9.01423 4.29456 9.01423 4.34979C9.01423 4.37631 9.00369 4.40175 8.98494 4.4205Z" fill="white"/>
</g>
<defs>
<clipPath id="clip0_42_14441">
<rect width="12" height="12" fill="white"/>
</clipPath>
</defs>
</svg>
