
<svg width="20" height="20" viewBox="0 0 20 20" fill="none" xmlns="http://www.w3.org/2000/svg">
<path d="M4.42019 3.38234L10.0737 9.09149L15.7268 3.38234C15.7581 3.35073 15.8007 3.33295 15.8452 3.33295H17.1267C17.2187 3.33295 17.2933 3.40757 17.2933 3.49961C17.2933 3.54353 17.276 3.58568 17.2451 3.61688L10.9489 9.97537L17.2926 16.3823C17.3573 16.4478 17.3568 16.5533 17.2914 16.618C17.2602 16.6489 17.218 16.6663 17.1741 16.6663H15.8931C15.8486 16.6663 15.8059 16.6485 15.7746 16.6169L10.0737 10.8593L4.37233 16.6169C4.34103 16.6485 4.29839 16.6663 4.2539 16.6663H2.97325C2.8812 16.6663 2.80658 16.5917 2.80658 16.4996C2.80658 16.4557 2.82391 16.4136 2.85481 16.3823L9.19846 9.97537L2.90229 3.61688C2.83752 3.55148 2.83804 3.44595 2.90345 3.38118C2.93465 3.35028 2.9768 3.33295 3.02072 3.33295H4.30176C4.34625 3.33295 4.38889 3.35073 4.42019 3.38234Z" fill="black"/>
</svg>
