<svg width="22" height="18" viewBox="0 0 22 18" fill="none" xmlns="http://www.w3.org/2000/svg">
<path d="M10.9993 0.729614C13.0085 0.729614 14.8479 1.46818 16.2683 2.69249L16.4468 2.84864L16.6445 3.02605L16.856 3.2201L17.1991 3.54238L17.5732 3.9021L17.9783 4.29926L18.2656 4.58483L18.8815 5.2059L19.3796 5.71537L20.092 6.45291L20.8595 7.25701L21.2639 7.68402C21.942 8.40165 21.9666 9.49116 21.3374 10.2358L21.2648 10.317L20.4735 11.1515L19.9116 11.7382L19.2105 12.462L18.7207 12.961L18.1159 13.5677L17.8341 13.846L17.4372 14.2322L17.0713 14.5806L16.7362 14.8915L16.5301 15.0778L16.3377 15.2475C16.3068 15.2744 16.2764 15.3005 16.2467 15.326C14.8292 16.5392 12.9984 17.2703 10.9993 17.2703C8.9883 17.2703 7.1475 16.5305 5.72657 15.3042L5.54827 15.1481L5.35083 14.9708L5.02885 14.6736L4.67588 14.3391L4.2919 13.9672L3.87694 13.5579L3.27543 12.954L2.61883 12.2837L1.90712 11.5469L0.939993 10.5325C0.872648 10.4614 0.804729 10.3897 0.736236 10.3172C0.0576193 9.59913 0.0333998 8.50871 0.663566 7.76408L0.736278 7.6828L1.71408 6.6545L2.16379 6.18637L2.79984 5.5306L3.19819 5.12437L3.57601 4.74292L4.03159 4.28886L4.48986 3.84021L4.77293 3.56818L5.16385 3.20073L5.40202 2.98283L5.62222 2.78659C5.65743 2.75568 5.69188 2.72568 5.72559 2.69658C7.14666 1.46982 8.98784 0.729614 10.9993 0.729614ZM10.9993 2.18909C9.41226 2.18909 7.91264 2.75969 6.7211 3.7883L6.45799 4.02046L6.26098 4.19971L5.93878 4.50038L5.45954 4.96046L5.06305 5.34979L4.63493 5.77694L4.17529 6.24182L3.68427 6.74432L3.16198 7.28435L2.41717 8.06257L1.8404 8.67071C1.66445 8.85687 1.66445 9.14315 1.84039 9.32931L2.60043 10.1298L3.50573 11.0718L4.00736 11.587L4.62747 12.2157L5.05587 12.6432L5.32393 12.9072L5.69963 13.2717L5.93246 13.4937L6.25516 13.7949L6.54589 14.0581L6.7219 14.2123C7.91332 15.2405 9.41262 15.8108 10.9993 15.8108C12.5766 15.8108 14.0676 15.2473 15.2559 14.2302L15.4271 14.0814L15.6182 13.9106L15.8236 13.7227L16.0433 13.5177L16.2771 13.2957L16.5252 13.0565L16.9237 12.666L17.5043 12.086L17.9766 11.6066L18.4801 11.0893L19.2002 10.3407L19.5809 9.94137L20.1599 9.33002C20.3355 9.14385 20.3354 8.85782 20.1596 8.67176L19.2169 7.67989L18.3266 6.75615L17.677 6.09239L17.2265 5.63861L16.8076 5.22267L16.4204 4.84468L16.1799 4.61382L15.9536 4.3999L15.6408 4.11083L15.45 3.93937L15.2736 3.78495C14.0827 2.75842 12.5846 2.18909 10.9993 2.18909ZM11 4.50066C13.4181 4.50066 15.3784 6.51537 15.3784 9.00066C15.3784 11.4859 13.4181 13.5007 11 13.5007C8.58186 13.5007 6.62157 11.4859 6.62157 9.00066C6.62157 6.51537 8.58186 4.50066 11 4.50066ZM11.0483 5.99998V7.8L11.0453 7.89C11.0003 8.48898 10.5208 8.95784 9.92961 8.9973L9.84833 9H8.04839L8.05139 9.13019C8.12108 10.735 9.4424 12.0001 11.0486 12C12.7055 11.9999 14.0485 10.6567 14.0484 8.99981C14.0483 7.34294 12.7051 5.99988 11.0483 5.99998Z" fill="white"/>
</svg>
