<svg width="20" height="10" viewBox="0 0 20 10" fill="none" xmlns="http://www.w3.org/2000/svg">
<path d="M19.9997 0.968308L20 2.56996C20 2.62712 19.9756 2.68155 19.9328 2.71951C18.9488 3.59385 18.1736 4.21012 17.6073 4.56833L19.5346 6.80827C19.6066 6.892 19.5972 7.01827 19.5134 7.09032C19.5122 7.09139 19.5109 7.09244 19.5096 7.09349L18.6703 7.78041C18.5863 7.84915 18.4628 7.83835 18.392 7.75606L16.2859 5.30776C15.2205 5.83075 14.0774 6.22495 12.8778 6.4694L13.9076 9.22891C13.9462 9.3324 13.8936 9.44759 13.7901 9.48621C13.7891 9.48659 13.7881 9.48695 13.7871 9.48731L12.7546 9.85383C12.6517 9.89036 12.5385 9.83759 12.5003 9.73528L11.3653 6.69407C10.9161 6.73647 10.4606 6.75817 10 6.75817C9.42377 6.75817 8.85568 6.72422 8.2977 6.65825L7.14945 9.73527C7.11127 9.83759 6.99808 9.89036 6.89517 9.85383L5.86268 9.48732C5.75859 9.45036 5.70416 9.33603 5.74111 9.23193C5.74147 9.23092 5.74184 9.22991 5.74222 9.22891L6.79823 6.39944C5.71655 6.15261 4.68313 5.78346 3.71414 5.30776L1.608 7.75606C1.53722 7.83835 1.41372 7.84915 1.32972 7.78041L0.490352 7.09349C0.404871 7.02353 0.392285 6.89752 0.462241 6.81204C0.463282 6.81077 0.464339 6.80951 0.465411 6.80827L2.39269 4.56833C1.82635 4.21011 1.05115 3.59382 0.0670969 2.71945C0.024434 2.68146 0 2.62706 0 2.56994V0.981558C0 0.871101 0.0895431 0.781558 0.2 0.781558C0.260114 0.781558 0.317039 0.808597 0.355021 0.855191L0.411033 0.923905L0.508966 1.03771C2.80141 3.64405 6.20299 5.29526 10 5.29526C13.8045 5.29526 17.212 3.63755 19.5045 1.02232L19.6545 0.846012C19.722 0.76265 19.8444 0.74984 19.9278 0.817401C19.9733 0.854283 19.9997 0.90973 19.9997 0.968308Z" fill="white"/>
</svg>
