<svg width="16" height="18" viewBox="0 0 16 18" fill="none" xmlns="http://www.w3.org/2000/svg">
<path d="M13.8333 0.666672C14.7538 0.666672 15.5 1.40379 15.5 2.31307V3.57389C15.5 3.79377 15.411 4.00343 15.2547 4.15717L10.5 8.49211V14.5622C10.5 15.1405 10.1928 15.6764 9.69083 15.9739L6.76208 17.2159C6.36743 17.4498 5.85555 17.3234 5.61876 16.9335C5.54105 16.8056 5.5 16.6592 5.5 16.51V8.49211L0.799846 4.20629C0.609853 4.04989 0.5 3.8182 0.5 3.57389V2.31307C0.5 1.40379 1.24619 0.666672 2.16667 0.666672H13.8333ZM13.8333 1.90147H2.16667C1.95299 1.90147 1.77687 2.06036 1.7528 2.26506L1.75 2.31307V3.30729C1.75 3.35433 1.76988 3.39918 1.80473 3.43078L6.69527 7.86415C6.73012 7.89574 6.75 7.94059 6.75 7.98763V15.5418C6.75 15.6338 6.82462 15.7084 6.91667 15.7084C6.93678 15.7084 6.95673 15.7048 6.97555 15.6977L9.04771 14.9151C9.15752 14.85 9.23004 14.7393 9.24646 14.6158L9.25 14.5622V7.98763C9.25 7.94059 9.26987 7.89574 9.30472 7.86415L14.1953 3.43036C14.2301 3.39877 14.25 3.35392 14.25 3.30689V2.31307C14.25 2.10198 14.0892 1.92801 13.8819 1.90424L13.8333 1.90147ZM15.5 14.0096V14.911C15.5 15.0031 15.4254 15.0777 15.3333 15.0777H12.3333C12.2413 15.0777 12.1667 15.0031 12.1667 14.911V14.0096C12.1667 13.9175 12.2413 13.8429 12.3333 13.8429H15.3333C15.4254 13.8429 15.5 13.9175 15.5 14.0096ZM15.5 11.54V12.4414C15.5 12.5335 15.4254 12.6081 15.3333 12.6081H12.3333C12.2413 12.6081 12.1667 12.5335 12.1667 12.4414V11.54C12.1667 11.4479 12.2413 11.3733 12.3333 11.3733H15.3333C15.4254 11.3733 15.5 11.4479 15.5 11.54ZM15.5 9.07037V9.97184C15.5 10.0639 15.4254 10.1385 15.3333 10.1385H12.3333C12.2413 10.1385 12.1667 10.0639 12.1667 9.97184V9.07037C12.1667 8.97833 12.2413 8.90371 12.3333 8.90371H15.3333C15.4254 8.90371 15.5 8.97833 15.5 9.07037Z" fill="black"/>
</svg>
