<svg width="24" height="24" viewBox="0 0 24 24" fill="none" xmlns="http://www.w3.org/2000/svg">
<path d="M12 1C18.0751 1 23 5.92487 23 12C23 18.0751 18.0751 23 12 23C5.92487 23 1 18.0751 1 12C1 5.92487 5.92487 1 12 1ZM12 2.5C6.75329 2.5 2.5 6.75329 2.5 12C2.5 17.2467 6.75329 21.5 12 21.5C17.2467 21.5 21.5 17.2467 21.5 12C21.5 6.75329 17.2467 2.5 12 2.5ZM12.3 7C12.4105 7 12.5 7.08954 12.5 7.2V11.5858C12.5 11.6388 12.5169 11.6901 12.5476 11.7325L12.5732 11.7626L16.6389 15.8282C16.717 15.9064 16.717 16.033 16.6389 16.1111L15.8611 16.8889C15.783 16.967 15.6564 16.967 15.5782 16.8889L11.5126 12.8232C11.2096 12.5203 11.0292 12.1177 11.0033 11.6925L11 11.5858V7.2C11 7.08954 11.0895 7 11.2 7H12.3Z" fill="#333B44"/>
</svg>
