<svg width="20" height="20" viewBox="0 0 20 20" fill="none" xmlns="http://www.w3.org/2000/svg">
<path d="M4.2993 1.94796L3.38272 2.85568C3.35112 2.88698 3.33333 2.92962 3.33333 2.9741V5.33092C3.33333 5.67287 3.61054 5.95008 3.9525 5.95008L6.33934 5.94997C6.38327 5.94997 6.42542 5.93262 6.45663 5.90171L7.37018 4.99669C7.43557 4.9319 7.43607 4.82638 7.37129 4.76099C7.33999 4.72939 7.29736 4.71162 7.25289 4.71162C6.85243 4.7116 6.45197 4.71158 6.05151 4.71156C5.91466 4.71155 5.70938 4.71154 5.43567 4.71153C5.62138 4.56221 5.76278 4.45284 5.85989 4.38343C7.02436 3.55108 8.45437 3.06065 10 3.06065C13.912 3.06065 17.0833 6.20235 17.0833 10.0778C17.0833 13.9533 13.912 17.095 10 17.095C6.29528 17.095 3.25484 14.2774 2.94302 10.6874C2.93382 10.5814 2.9264 10.4322 2.92076 10.2396C2.91811 10.1495 2.84431 10.0778 2.75417 10.0778C2.62316 10.0778 2.52577 10.0778 2.462 10.0778C2.30905 10.0778 2.18283 10.0778 2.08333 10.0778C2.02168 10.0778 1.93949 10.0778 1.83678 10.0778V10.0778C1.74471 10.0778 1.67007 10.1524 1.67007 10.2445C1.67007 10.2458 1.67009 10.2472 1.67012 10.2485C1.67412 10.4156 1.67931 10.5461 1.68569 10.6401C1.97743 14.9373 5.58838 18.3333 10 18.3333C14.6024 18.3333 18.3333 14.6372 18.3333 10.0778C18.3333 5.51844 14.6024 1.82233 10 1.82233C8.11381 1.82233 6.37398 2.44313 4.97735 3.48974C4.88751 3.55706 4.75601 3.66195 4.58284 3.80441C4.58288 3.63244 4.58291 3.50346 4.58293 3.41748C4.58304 2.96713 4.58314 2.51678 4.58324 2.06642C4.58326 1.97438 4.50866 1.89974 4.41661 1.89972C4.37268 1.89971 4.33051 1.91705 4.2993 1.94796Z" fill="white"/>
</svg>
