<svg width="24" height="24" viewBox="0 0 24 24" fill="none" xmlns="http://www.w3.org/2000/svg">
<path d="M3.3 16C3.41046 16 3.5 16.0895 3.5 16.2V19C3.5 19.7988 4.12446 20.4518 4.91186 20.4975L5 20.5H7.8C7.91046 20.5 8 20.5895 8 20.7V21.8C8 21.9105 7.91046 22 7.8 22H5C3.34315 22 2 20.6569 2 19V16.2C2 16.0895 2.08954 16 2.2 16H3.3ZM21.8 16C21.9105 16 22 16.0895 22 16.2V19C22 20.6569 20.6569 22 19 22H16.2C16.0895 22 16 21.9105 16 21.8V20.7C16 20.5895 16.0895 20.5 16.2 20.5H19C19.7988 20.5 20.4518 19.8755 20.4975 19.0881L20.5 19V16.2C20.5 16.0895 20.5895 16 20.7 16H21.8ZM21.8 11.5C21.9105 11.5 22 11.5895 22 11.7V12.8C22 12.9105 21.9105 13 21.8 13H2.2C2.08954 13 2 12.9105 2 12.8V11.7C2 11.5895 2.08954 11.5 2.2 11.5H21.8ZM19 2C20.6569 2 22 3.34315 22 5V7.8C22 7.91046 21.9105 8 21.8 8H20.7C20.5895 8 20.5 7.91046 20.5 7.8V5C20.5 4.20116 19.8755 3.54817 19.0881 3.50255L19 3.5H16.2C16.0895 3.5 16 3.41046 16 3.3V2.2C16 2.08954 16.0895 2 16.2 2H19ZM7.8 2C7.91046 2 8 2.08954 8 2.2V3.3C8 3.41046 7.91046 3.5 7.8 3.5H5C4.20116 3.5 3.54817 4.12446 3.50255 4.91186L3.5 5V7.8C3.5 7.91046 3.41046 8 3.3 8H2.2C2.08954 8 2 7.91046 2 7.8V5C2 3.34315 3.34315 2 5 2H7.8Z" fill="white"/>
</svg>
