<svg width="22" height="22" viewBox="0 0 22 22" fill="none" xmlns="http://www.w3.org/2000/svg">
<path d="M11 0C17.0751 0 22 4.92487 22 11C22 17.0751 17.0751 22 11 22C4.92487 22 0 17.0751 0 11C0 4.92487 4.92487 0 11 0ZM11.25 5C9.36295 5 7.82574 6.49789 7.76251 8.36954L7.76049 8.4895V10.5105C7.76049 11.7264 8.38643 12.8318 9.39281 13.4655L9.50618 13.534L10.1542 13.9089C10.2159 13.9446 10.2539 14.0104 10.254 14.0817L10.2563 15.7784C10.2564 15.8523 10.2157 15.9202 10.1506 15.9551C8.32354 16.9316 6.95328 17.664 6.03978 18.1523C5.86626 18.2451 5.60597 18.3842 5.25893 18.5697C5.59507 18.8123 5.85164 18.9881 6.02864 19.097C7.4748 19.9868 9.17746 20.5 11 20.5C12.9273 20.5 14.7205 19.9261 16.2181 18.9398C16.3815 18.8323 16.6184 18.6601 16.9289 18.4233C16.6013 18.2467 16.3556 18.1143 16.1918 18.0261C15.3378 17.5659 14.0568 16.8756 12.3489 15.9552C12.284 15.9203 12.2436 15.8525 12.2437 15.7789L12.246 14.0817C12.2461 14.0104 12.2841 13.9446 12.3458 13.9089L12.9938 13.534C14.028 12.9357 14.6909 11.8523 14.7369 10.6451L14.7395 10.5105V8.4895C14.7395 6.5623 13.1772 5 11.25 5ZM11 1.5C5.75329 1.5 1.5 5.75329 1.5 11C1.5 13.1996 2.24753 15.2245 3.50239 16.8347C3.60572 16.9673 3.76106 17.1504 3.96841 17.3841C4.02984 17.4532 4.13066 17.4713 4.21223 17.4277C4.49127 17.2786 4.70572 17.164 4.85557 17.0839C5.72216 16.6208 7.02205 15.9262 8.75524 15L8.75502 14.8324C7.26377 13.9696 6.26049 12.3572 6.26049 10.5105V8.4895C6.26049 5.73388 8.49437 3.5 11.25 3.5C14.0056 3.5 16.2395 5.73388 16.2395 8.4895V10.5105C16.2395 12.3572 15.2362 13.9696 13.745 14.8324L13.7448 15C15.3749 15.8714 16.5975 16.5249 17.4125 16.9605C17.5384 17.0278 17.7168 17.1232 17.9478 17.2467C18.0311 17.2912 18.1343 17.2714 18.1951 17.199C18.4046 16.95 18.5612 16.7549 18.6647 16.6137C19.8186 15.041 20.5 13.1001 20.5 11C20.5 5.75329 16.2467 1.5 11 1.5Z" fill="white"/>
</svg>
